<svg xmlns="http://www.w3.org/2000/svg" viewBox="-77.0 -55.0 574.0 322.0" width="574" height="322" role="img" aria-labelledby="tbookstyle dbookstyle">
  <title id="tbookstyle">Book-style box with magnetic lid</title>
  <desc id="dbookstyle">Flat dieline. Black solid lines are cut lines, red dashed lines are fold lines, green dashed is the 3 mm bleed. Panels are labelled in their final orientation.</desc>
  <g>
  <line x1="200.00" y1="44.00" x2="200.00" y2="194.00" stroke="#FF0000" stroke-width="1.25" stroke-dasharray="7 4"/>
  <line x1="252.00" y1="44.00" x2="252.00" y2="194.00" stroke="#FF0000" stroke-width="1.25" stroke-dasharray="7 4"/>
  <line x1="0.00" y1="44.00" x2="452.00" y2="44.00" stroke="#FF0000" stroke-width="1.25" stroke-dasharray="7 4"/>
  <line x1="0.00" y1="194.00" x2="452.00" y2="194.00" stroke="#FF0000" stroke-width="1.25" stroke-dasharray="7 4"/>
  <path d="M0.00,44.00 L0.00,0.00 L188.00,0.00 L200.00,15.40 L200.00,0.00 L248.88,0.00 L252.00,15.40 L252.00,0.00 L440.00,0.00 L452.00,15.40 L452.00,44.00 L452.00,194.00 L452.00,222.60 L440.00,238.00 L248.88,238.00 L203.12,238.00 L188.00,238.00 L12.00,238.00 L0.00,194.00 Z" fill="none" stroke="#000000" stroke-width="1.7" stroke-linejoin="miter"/>
  <line x1="452.00" y1="44.00" x2="452.00" y2="194.00" stroke="#FF0000" stroke-width="1.25" stroke-dasharray="7 4"/>
  <path d="M452.00,44.00 L468.00,52.00 L468.00,186.00 L452.00,194.00 Z" fill="none" stroke="#000000" stroke-width="1.7" stroke-linejoin="miter"/>
  <path d="M-3.00,-3.00 L471.00,-3.00 L471.00,241.00 L-3.00,241.00 L-3.00,-3.00" fill="none" stroke="#69BD44" stroke-width="1.1" stroke-dasharray="12 5"/>
  <text x="100.00" y="119.00" font-family="ui-sans-serif,system-ui,-apple-system,'Segoe UI',Roboto,'Helvetica Neue',Arial,sans-serif" font-size="17" font-weight="600" fill="#1A1A1A" text-anchor="middle" dominant-baseline="middle">Front cover</text>
  <text x="226.00" y="119.00" transform="rotate(-90 226.00 119.00)" font-family="ui-sans-serif,system-ui,-apple-system,'Segoe UI',Roboto,'Helvetica Neue',Arial,sans-serif" font-size="12.5" font-weight="600" fill="#1A1A1A" text-anchor="middle" dominant-baseline="middle">Spine</text>
  <text x="352.00" y="119.00" font-family="ui-sans-serif,system-ui,-apple-system,'Segoe UI',Roboto,'Helvetica Neue',Arial,sans-serif" font-size="17" font-weight="600" fill="#1A1A1A" text-anchor="middle" dominant-baseline="middle">Back cover</text>
  <text x="460.00" y="119.00" transform="rotate(-90 460.00 119.00)" font-family="ui-sans-serif,system-ui,-apple-system,'Segoe UI',Roboto,'Helvetica Neue',Arial,sans-serif" font-size="11.5" font-weight="500" fill="#57504B" text-anchor="middle" dominant-baseline="middle">Glue flap</text>
  <text x="100.00" y="19.80" font-family="ui-sans-serif,system-ui,-apple-system,'Segoe UI',Roboto,'Helvetica Neue',Arial,sans-serif" font-size="12" font-weight="500" fill="#57504B" text-anchor="middle" dominant-baseline="middle">Side wall</text>
  <text x="100.00" y="218.20" font-family="ui-sans-serif,system-ui,-apple-system,'Segoe UI',Roboto,'Helvetica Neue',Arial,sans-serif" font-size="12" font-weight="500" fill="#57504B" text-anchor="middle" dominant-baseline="middle">Lid side wall</text>
  <text x="226.00" y="56.00" font-family="ui-sans-serif,system-ui,-apple-system,'Segoe UI',Roboto,'Helvetica Neue',Arial,sans-serif" font-size="11" font-weight="500" fill="#FF0000" text-anchor="middle" dominant-baseline="middle">hinge — fold, not cut</text>
  <line x1="-0.00" y1="-26.40" x2="468.00" y2="-26.40" stroke="#1A1A1A" stroke-width="0.95"/>
  <line x1="-0.00" y1="-3.00" x2="-0.00" y2="-31.40" stroke="#1A1A1A" stroke-width="0.6" stroke-dasharray="3 3"/>
  <line x1="-0.00" y1="-31.40" x2="-0.00" y2="-21.40" stroke="#1A1A1A" stroke-width="0.95"/>
  <line x1="468.00" y1="-3.00" x2="468.00" y2="-31.40" stroke="#1A1A1A" stroke-width="0.6" stroke-dasharray="3 3"/>
  <line x1="468.00" y1="-31.40" x2="468.00" y2="-21.40" stroke="#1A1A1A" stroke-width="0.95"/>
  <text x="234.00" y="-39.40" font-family="ui-sans-serif,system-ui,-apple-system,'Segoe UI',Roboto,'Helvetica Neue',Arial,sans-serif" font-size="13" font-weight="500" fill="#1A1A1A" text-anchor="middle" dominant-baseline="middle">unfolded 468 mm</text>
  <line x1="-31.08" y1="44.00" x2="-31.08" y2="194.00" stroke="#1A1A1A" stroke-width="0.95"/>
  <line x1="-0.00" y1="44.00" x2="-36.08" y2="44.00" stroke="#1A1A1A" stroke-width="0.6" stroke-dasharray="3 3"/>
  <line x1="-36.08" y1="44.00" x2="-26.08" y2="44.00" stroke="#1A1A1A" stroke-width="0.95"/>
  <line x1="-0.00" y1="194.00" x2="-36.08" y2="194.00" stroke="#1A1A1A" stroke-width="0.6" stroke-dasharray="3 3"/>
  <line x1="-36.08" y1="194.00" x2="-26.08" y2="194.00" stroke="#1A1A1A" stroke-width="0.95"/>
  <text x="-44.08" y="119.00" font-family="ui-sans-serif,system-ui,-apple-system,'Segoe UI',Roboto,'Helvetica Neue',Arial,sans-serif" font-size="13" font-weight="500" fill="#1A1A1A" text-anchor="middle" dominant-baseline="middle">body 150</text>
  </g>
</svg>
