<svg xmlns="http://www.w3.org/2000/svg" viewBox="0 0 1180 880" width="1180" height="880" role="img" aria-labelledby="ttl dsc">
  <title id="ttl">Straight tuck-end carton — dieline</title>
  <desc id="dsc">Flat dieline of a straight tuck-end carton: four named panels (back, side, front, side), a glue flap, one tuck flap with shoulders on the front panel, four dust flaps on the two side panels, a bleed outline, dimension lines and a legend for cut lines, folds, bleed and print area.</desc>
  <g transform="translate(300.0,306.0)">
  <g id="dl-bleed">
  <rect x="-34.0" y="-42.0" width="456.0" height="206.0" fill="none" stroke="#857678" stroke-width="1" stroke-dasharray="3 4"/>
  <g id="dl-dust">
  <path d="M 110.0 0.0 L 110.0 -92.0 L 202.0 -92.0 L 202.0 0.0" fill="#F7F4EF" stroke="#8E1B2A" stroke-width="2"/>
  <path d="M 110.0 158.0 L 110.0 250.0 L 202.0 250.0 L 202.0 158.0" fill="#F7F4EF" stroke="#8E1B2A" stroke-width="2"/>
  <path d="M 318.0 0.0 L 318.0 -92.0 L 410.0 -92.0 L 410.0 0.0" fill="#F7F4EF" stroke="#8E1B2A" stroke-width="2"/>
  <path d="M 318.0 158.0 L 318.0 250.0 L 410.0 250.0 L 410.0 158.0" fill="#F7F4EF" stroke="#8E1B2A" stroke-width="2"/>
  <g id="dl-tuck">
  <path id="tuckflap" d="M 208.0 0.0 L 208.0 -30.0 Q 208.0 -36.0 213.0 -36.0 L 307.0 -36.0 Q 312.0 -36.0 312.0 -30.0 L 312.0 0.0 Z" fill="#F7F4EF" stroke="#8E1B2A" stroke-width="2"/>
  <g id="dl-tuck2">
  <path d="M 0.0 158.0 L 0.0 188.0 Q 0.0 194.0 5.0 194.0 L 99.0 194.0 Q 104.0 194.0 104.0 188.0 L 104.0 158.0 Z" fill="#F7F4EF" stroke="#8E1B2A" stroke-width="2"/>
  <g id="dl-glue">
  <polygon points="0.0,20.0 -28.0,38.0 -28.0,120.0 0.0,138.0" fill="#F7F4EF" stroke="#8E1B2A" stroke-width="2"/>
  <g id="dl-panels">
  <rect x="0.0" y="0.0" width="416.0" height="158.0" fill="#F7F4EF" stroke="#8E1B2A" stroke-width="2.4"/>
  <g id="dl-creases">
  <line x1="104.0" y1="0.0" x2="104.0" y2="158.0" stroke="#C9A227" stroke-width="1.8" stroke-dasharray="8 6"/>
  <line x1="208.0" y1="0.0" x2="208.0" y2="158.0" stroke="#C9A227" stroke-width="1.8" stroke-dasharray="8 6"/>
  <line x1="312.0" y1="0.0" x2="312.0" y2="158.0" stroke="#C9A227" stroke-width="1.8" stroke-dasharray="8 6"/>
  <g id="dl-labels">
  <text x="52.0" y="78.0" font-family="system-ui,-apple-system,'Segoe UI',Roboto,Arial,sans-serif" font-size="22" font-weight="600" fill="#857678" text-anchor="middle">1</text>
  <text x="52.0" y="100.0" font-family="system-ui,-apple-system,'Segoe UI',Roboto,Arial,sans-serif" font-size="12" font-weight="500" fill="#857678" text-anchor="middle">back</text>
  <text x="156.0" y="78.0" font-family="system-ui,-apple-system,'Segoe UI',Roboto,Arial,sans-serif" font-size="22" font-weight="600" fill="#857678" text-anchor="middle">2</text>
  <text x="156.0" y="100.0" font-family="system-ui,-apple-system,'Segoe UI',Roboto,Arial,sans-serif" font-size="12" font-weight="500" fill="#857678" text-anchor="middle">side</text>
  <text x="260.0" y="78.0" font-family="system-ui,-apple-system,'Segoe UI',Roboto,Arial,sans-serif" font-size="22" font-weight="600" fill="#857678" text-anchor="middle">3</text>
  <text x="260.0" y="100.0" font-family="system-ui,-apple-system,'Segoe UI',Roboto,Arial,sans-serif" font-size="12" font-weight="500" fill="#857678" text-anchor="middle">front</text>
  <text x="364.0" y="78.0" font-family="system-ui,-apple-system,'Segoe UI',Roboto,Arial,sans-serif" font-size="22" font-weight="600" fill="#857678" text-anchor="middle">4</text>
  <text x="364.0" y="100.0" font-family="system-ui,-apple-system,'Segoe UI',Roboto,Arial,sans-serif" font-size="12" font-weight="500" fill="#857678" text-anchor="middle">side</text>
  <g id="dl-leaders">
  <circle cx="118.0" cy="-80.0" r="2.6" fill="#8E1B2A"/><path d="M 118.0 -80.0 L 26.0 -118.0" fill="none" stroke="#857678" stroke-width="1"/><text x="18.0" y="-113.5" font-family="system-ui,-apple-system,'Segoe UI',Roboto,Arial,sans-serif" font-size="12.5" font-weight="500" fill="#857678" text-anchor="end">dust flap 92 mm</text>
  <circle cx="294.0" cy="-26.0" r="2.6" fill="#8E1B2A"/><path d="M 294.0 -26.0 L 408.0 -42.0" fill="none" stroke="#857678" stroke-width="1"/><text x="416.0" y="-37.5" font-family="system-ui,-apple-system,'Segoe UI',Roboto,Arial,sans-serif" font-size="12.5" font-weight="500" fill="#857678" text-anchor="start">tuck flap 36 mm</text>
  <circle cx="-24.0" cy="118.0" r="2.6" fill="#8E1B2A"/><path d="M -24.0 118.0 L -68.0 216.0" fill="none" stroke="#857678" stroke-width="1"/><text x="-76.0" y="220.5" font-family="system-ui,-apple-system,'Segoe UI',Roboto,Arial,sans-serif" font-size="12.5" font-weight="500" fill="#857678" text-anchor="end">glue flap 28 mm</text>
  <g id="dl-dims">
  <line x1="0.0" y1="272.0" x2="416.0" y2="272.0" stroke="#857678" stroke-width="1"/><path d="M 0.0 272.0 l 9 -3.5 l 0 7 z" fill="#857678"/><line x1="0.0" y1="265.0" x2="0.0" y2="279.0" stroke="#857678" stroke-width="1"/><path d="M 416.0 272.0 l -9 -3.5 l 0 7 z" fill="#857678"/><line x1="416.0" y1="265.0" x2="416.0" y2="279.0" stroke="#857678" stroke-width="1"/><text x="208.0" y="264.0" font-family="system-ui,-apple-system,'Segoe UI',Roboto,Arial,sans-serif" font-size="12.5" font-weight="500" fill="#857678" text-anchor="middle">unfolded width = 4 x 104 + glue flap</text>
  <line x1="104.0" y1="-56.0" x2="208.0" y2="-56.0" stroke="#857678" stroke-width="1"/><path d="M 104.0 -56.0 l 9 -3.5 l 0 7 z" fill="#857678"/><line x1="104.0" y1="-63.0" x2="104.0" y2="-49.0" stroke="#857678" stroke-width="1"/><path d="M 208.0 -56.0 l -9 -3.5 l 0 7 z" fill="#857678"/><line x1="208.0" y1="-63.0" x2="208.0" y2="-49.0" stroke="#857678" stroke-width="1"/><text x="156.0" y="-64.0" font-family="system-ui,-apple-system,'Segoe UI',Roboto,Arial,sans-serif" font-size="12.5" font-weight="500" fill="#857678" text-anchor="middle">panel 104 mm</text>
  <line x1="-50.0" y1="0.0" x2="-50.0" y2="158.0" stroke="#857678" stroke-width="1"/><path d="M -50.0 0.0 l -3.5 9 l 7 0 z" fill="#857678"/><line x1="-57.0" y1="0.0" x2="-43.0" y2="0.0" stroke="#857678" stroke-width="1"/><path d="M -50.0 158.0 l -3.5 -9 l 7 0 z" fill="#857678"/><line x1="-57.0" y1="158.0" x2="-43.0" y2="158.0" stroke="#857678" stroke-width="1"/><text x="-58.0" y="79.0" font-family="system-ui,-apple-system,'Segoe UI',Roboto,Arial,sans-serif" font-size="12.5" font-weight="500" fill="#857678" text-anchor="middle" transform="rotate(-90 -58.0 79.0)">panel height 158 mm</text>
  <g id="dl-legend">
  <line x1="0.0" y1="300.0" x2="44.0" y2="300.0" stroke="#8E1B2A" stroke-width="2.4"/>
  <text x="52.0" y="304.5" font-family="system-ui,-apple-system,'Segoe UI',Roboto,Arial,sans-serif" font-size="12.5" font-weight="500" fill="#857678" text-anchor="start">Cut line</text>
  <line x1="180.0" y1="300.0" x2="224.0" y2="300.0" stroke="#C9A227" stroke-width="1.8" stroke-dasharray="8 6"/>
  <text x="232.0" y="304.5" font-family="system-ui,-apple-system,'Segoe UI',Roboto,Arial,sans-serif" font-size="12.5" font-weight="500" fill="#857678" text-anchor="start">Fold / crease</text>
  <line x1="390.0" y1="300.0" x2="434.0" y2="300.0" stroke="#857678" stroke-width="1" stroke-dasharray="3 4"/>
  <text x="442.0" y="304.5" font-family="system-ui,-apple-system,'Segoe UI',Roboto,Arial,sans-serif" font-size="12.5" font-weight="500" fill="#857678" text-anchor="start">Bleed</text>
  <rect x="546.0" y="293.0" width="44" height="14" fill="#F7F4EF" stroke="#8E1B2A" stroke-width="1.3"/>
  <text x="598.0" y="304.5" font-family="system-ui,-apple-system,'Segoe UI',Roboto,Arial,sans-serif" font-size="12.5" font-weight="500" fill="#857678" text-anchor="start">Print area</text>
  </g>
  </g>
  </g>
  </g>
  </g>
  </g>
  </g>
  </g>
  </g>
  </g>
  </g>
  </g>
</svg>
