<svg xmlns="http://www.w3.org/2000/svg" viewBox="0 0 880 430" width="880" height="430" role="img" aria-labelledby="ttl dsc">
  <title id="ttl">Straight tuck-end carton dieline</title>
  <desc id="dsc">Flat dieline of a straight tuck-end carton: four numbered panels, a glue flap, tuck flaps, and a legend for cut lines, fold lines and print areas.</desc>
  <g transform="translate(142.5,104.2)">
  <line x1="104.0" y1="0.0" x2="104.0" y2="158.0" stroke="#C9A227" stroke-width="1.8" stroke-dasharray="8 6"/>
  <line x1="208.0" y1="0.0" x2="208.0" y2="158.0" stroke="#C9A227" stroke-width="1.8" stroke-dasharray="8 6"/>
  <line x1="312.0" y1="0.0" x2="312.0" y2="158.0" stroke="#C9A227" stroke-width="1.8" stroke-dasharray="8 6"/>
  <path d="M 0.0 0.0 L 13.0 -36.0 L 91.0 -36.0 L 104.0 0.0" fill="#FFFFFF" stroke="#8E1B2A" stroke-width="2"/>
  <path d="M 0.0 158.0 L 13.0 194.0 L 91.0 194.0 L 104.0 158.0" fill="#FFFFFF" stroke="#8E1B2A" stroke-width="2"/>
  <path d="M 208.0 0.0 L 221.0 -36.0 L 299.0 -36.0 L 312.0 0.0" fill="#FFFFFF" stroke="#8E1B2A" stroke-width="2"/>
  <path d="M 208.0 158.0 L 221.0 194.0 L 299.0 194.0 L 312.0 158.0" fill="#FFFFFF" stroke="#8E1B2A" stroke-width="2"/>
  <polygon points="0.0,20.0 -28.0,38.0 -28.0,120.0 0.0,138.0" fill="#FFFFFF" stroke="#8E1B2A" stroke-width="2"/>
  <rect x="0.0" y="0.0" width="416.0" height="158.0" fill="#F7F4EF" stroke="#8E1B2A" stroke-width="2.4"/>
  <text x="52.0" y="85.0" font-family="system-ui,-apple-system,'Segoe UI',Roboto,Arial,sans-serif" font-size="22" font-weight="600" fill="#857678" text-anchor="middle">1</text>
  <text x="156.0" y="85.0" font-family="system-ui,-apple-system,'Segoe UI',Roboto,Arial,sans-serif" font-size="22" font-weight="600" fill="#857678" text-anchor="middle">2</text>
  <text x="260.0" y="85.0" font-family="system-ui,-apple-system,'Segoe UI',Roboto,Arial,sans-serif" font-size="22" font-weight="600" fill="#857678" text-anchor="middle">3</text>
  <text x="364.0" y="85.0" font-family="system-ui,-apple-system,'Segoe UI',Roboto,Arial,sans-serif" font-size="22" font-weight="600" fill="#857678" text-anchor="middle">4</text>
  <line x1="0.0" y1="234.0" x2="416.0" y2="234.0" stroke="#857678" stroke-width="1.2"/>
  <text x="0.0" y="254.0" font-family="system-ui,-apple-system,'Segoe UI',Roboto,Arial,sans-serif" font-size="12" font-weight="500" fill="#857678" text-anchor="start">unfolded length = 4 x panel width + glue flap</text>
  <line x1="474.0" y1="10.0" x2="520.0" y2="10.0" stroke="#8E1B2A" stroke-width="2.4"/>
  <text x="532.0" y="15.0" font-family="system-ui,-apple-system,'Segoe UI',Roboto,Arial,sans-serif" font-size="12.5" font-weight="500" fill="#857678" text-anchor="start">Cut line</text>
  <line x1="474.0" y1="44.0" x2="520.0" y2="44.0" stroke="#C9A227" stroke-width="1.8" stroke-dasharray="8 6"/>
  <text x="532.0" y="49.0" font-family="system-ui,-apple-system,'Segoe UI',Roboto,Arial,sans-serif" font-size="12.5" font-weight="500" fill="#857678" text-anchor="start">Fold / crease</text>
  <rect x="474.0" y="70.0" width="46" height="18" fill="#F7F4EF" stroke="#8E1B2A" stroke-width="1.4"/>
  <text x="532.0" y="84.0" font-family="system-ui,-apple-system,'Segoe UI',Roboto,Arial,sans-serif" font-size="12.5" font-weight="500" fill="#857678" text-anchor="start">Print area</text>
  </g>
</svg>
